<svg xmlns="http://www.w3.org/2000/svg" version="1.1" xmlns:xlink="http://www.w3.org/1999/xlink" xmlns:svgjs="http://svgjs.dev/svgjs" width="765" height="625" viewBox="0 0 337.1501220703125 300" class="svg-animations " style="background-color: rgb(255, 255, 255);"><svg viewBox="0 0 94.00724029541016 138.99130249023438" width="80" height="80" x="28.095843505859364" y="110" style="fill: rgb(0, 128, 255);"><svg width="94" height="134" viewBox="0 0 94 134" xmlns="http://www.w3.org/2000/svg">
	<path d="M76.2735 0C76.2735 0 -64.6456 73.2804 36.5852 129.033L42.1027 99.1059H15.9721L37.2328 47.6174H68.9348L54.9185 76.7048H79.4033L38.2715 129.953C40.2681 131.022 42.359 132.092 44.5445 133.134C45.4753 133.662 46.2038 134.041 46.3117 133.986L46.7569 133.743C55.6604 128.843 126.228 86.342 76.2735 0ZM45.1245 133.418C45.2729 133.486 45.4078 133.553 45.5427 133.621C45.5697 133.662 45.3943 133.567 45.1245 133.418Z"/>
	</svg></svg><svg x="146.48506088256835" y="123.34499931335449" style="fill: rgb(0, 128, 255);"><path d="M27.86 49.43L27.86 49.43Q25.38 49.43 23.27 48.05Q21.17 46.67 19.22 45.00L19.22 45.00Q17.93 45.65 16.58 46.02Q15.23 46.40 13.82 46.40L13.82 46.40Q11.34 46.40 10.07 45.46Q8.80 44.51 8.34 43.38Q7.88 42.24 7.88 41.65L7.88 41.65Q7.88 40.73 8.78 39.79Q9.67 38.84 11.83 38.84L11.83 38.84Q14.04 38.84 16.15 39.90Q18.25 40.95 20.41 42.30L20.41 42.30Q22.84 40.14 24.70 36.79Q26.57 33.44 27.84 29.61Q29.11 25.77 29.78 22.07Q30.46 18.38 30.46 15.51L30.46 15.51Q30.46 11.09 28.78 8.33Q27.11 5.58 23.33 5.58L23.33 5.58Q20.20 5.58 17.50 7.44Q14.80 9.30 12.61 12.44Q10.42 15.57 8.86 19.43Q7.29 23.29 6.45 27.39Q5.62 31.50 5.62 35.22L5.62 35.22Q5.62 36.36 5.72 37.49Q5.83 38.63 6.05 39.76L6.05 39.76Q4.37 39.76 3.48 38.68Q2.59 37.60 2.24 35.90Q1.89 34.20 1.89 32.25L1.89 32.25Q1.89 28.20 2.97 24.18Q4.05 20.16 6.02 16.54Q7.99 12.92 10.66 10.14Q13.34 7.36 16.55 5.74Q19.76 4.12 23.27 4.12L23.27 4.12Q28.46 4.12 31.35 7.66Q34.24 11.19 34.24 17.24L34.24 17.24Q34.24 20.64 33.32 24.34Q32.40 28.04 30.75 31.58Q29.11 35.12 26.89 38.14Q24.68 41.16 22.03 43.22L22.03 43.22Q23.87 44.24 25.84 44.97Q27.81 45.70 30.02 45.70L30.02 45.70Q31.21 45.70 31.78 45.48Q32.35 45.27 33.16 45.05L33.16 45.05Q32.62 46.94 31.67 47.89Q30.73 48.83 29.73 49.13Q28.73 49.43 27.86 49.43ZM13.82 45.05L13.82 45.05Q14.96 45.05 16.01 44.76Q17.06 44.46 18.04 43.92L18.04 43.92Q16.36 42.46 14.71 41.35Q13.07 40.25 11.29 40.25L11.29 40.25Q10.04 40.25 9.67 40.76Q9.29 41.27 9.29 41.70L9.29 41.70Q9.29 42.19 9.67 42.97Q10.04 43.76 11.02 44.40Q11.99 45.05 13.82 45.05ZM40.12 44.62L40.12 44.62Q38.29 44.62 37.18 42.97Q36.07 41.33 36.07 39.17L36.07 39.17Q36.07 37.60 36.58 35.55Q37.10 33.50 37.85 31.50Q38.61 29.50 39.42 28.20Q40.23 26.91 40.82 26.91L40.82 26.91Q41.09 26.91 41.74 27.20Q42.39 27.50 42.82 27.99L42.82 27.99Q42.23 28.91 41.36 30.80Q40.50 32.69 39.85 34.85Q39.20 37.01 39.20 38.84L39.20 38.84Q39.20 39.27 39.31 40.16Q39.42 41.06 39.85 41.76Q40.28 42.46 41.15 42.46L41.15 42.46Q42.17 42.46 43.25 41.41Q44.33 40.35 45.44 38.68Q46.55 37.01 47.57 35.06Q48.60 33.12 49.49 31.34Q50.38 29.55 50.98 28.37L50.98 28.37Q51.30 28.42 51.92 28.58Q52.54 28.74 53.05 29.01Q53.57 29.28 53.57 29.77L53.57 29.77Q53.57 29.99 53.03 31.20Q52.49 32.42 51.76 34.17Q51.03 35.93 50.49 37.71Q49.95 39.49 49.95 40.84L49.95 40.84Q49.95 41.81 50.35 42.41Q50.76 43 51.73 43L51.73 43Q52.87 43 54.49 41.97Q56.11 40.95 57.78 38.98Q59.45 37.01 60.75 34.25L60.75 34.25L61.45 34.74Q60.32 37.65 58.48 39.90Q56.65 42.14 54.59 43.38Q52.54 44.62 50.60 44.62L50.60 44.62Q48.44 44.62 47.63 43.46Q46.82 42.30 46.82 40.62L46.82 40.62Q46.82 39.98 46.93 39.30Q47.03 38.63 47.20 37.92L47.20 37.92Q45.68 40.57 43.93 42.59Q42.17 44.62 40.12 44.62ZM65.56 45.38L65.56 45.38Q62.26 45.38 60.61 43.57Q58.97 41.76 58.97 39.11L58.97 39.11Q58.97 36.68 60.18 33.98Q61.40 31.28 63.42 28.91Q65.45 26.53 67.88 25.05Q70.31 23.56 72.68 23.56L72.68 23.56Q73.93 23.56 74.98 24.21Q76.03 24.86 76.03 26.85L76.03 26.85Q76.03 28.91 74.82 30.71Q73.60 32.52 71.63 33.93Q69.66 35.33 67.31 36.22Q64.96 37.11 62.64 37.33L62.64 37.33Q62.53 37.87 62.48 38.36Q62.42 38.84 62.42 39.27L62.42 39.27Q62.42 40.95 63.31 42.38Q64.21 43.81 66.69 43.81L66.69 43.81Q69.01 43.81 71.28 42.49Q73.55 41.16 75.49 39.00Q77.44 36.84 78.79 34.25L78.79 34.25L79.43 34.74Q77.98 37.98 75.73 40.35Q73.49 42.73 70.88 44.05Q68.26 45.38 65.56 45.38ZM62.91 36.30L62.91 36.30Q64.37 35.82 66.20 34.87Q68.04 33.93 69.74 32.63Q71.44 31.34 72.55 29.77Q73.66 28.20 73.66 26.48L73.66 26.48Q73.66 25.88 73.44 25.56Q73.22 25.23 72.52 25.23L72.52 25.23Q71.23 25.23 69.77 26.23Q68.31 27.23 66.96 28.85Q65.61 30.47 64.53 32.42Q63.45 34.36 62.91 36.30ZM81.76 44.62L81.76 44.62Q79.92 44.62 78.81 42.97Q77.71 41.33 77.71 39.17L77.71 39.17Q77.71 37.60 78.22 35.55Q78.73 33.50 79.49 31.50Q80.24 29.50 81.05 28.20Q81.86 26.91 82.46 26.91L82.46 26.91Q82.73 26.91 83.38 27.20Q84.02 27.50 84.46 27.99L84.46 27.99Q83.86 28.91 83.00 30.80Q82.13 32.69 81.49 34.85Q80.84 37.01 80.84 38.84L80.84 38.84Q80.84 39.27 80.95 40.16Q81.05 41.06 81.49 41.76Q81.92 42.46 82.78 42.46L82.78 42.46Q83.81 42.46 84.89 41.41Q85.97 40.35 87.07 38.68Q88.18 37.01 89.21 35.06Q90.23 33.12 91.12 31.34Q92.02 29.55 92.61 28.37L92.61 28.37Q92.93 28.42 93.55 28.58Q94.18 28.74 94.69 29.01Q95.20 29.28 95.20 29.77L95.20 29.77Q95.20 29.99 94.66 31.20Q94.12 32.42 93.39 34.17Q92.66 35.93 92.12 37.71Q91.58 39.49 91.58 40.84L91.58 40.84Q91.58 41.81 91.99 42.41Q92.39 43 93.37 43L93.37 43Q94.50 43 96.12 41.97Q97.74 40.95 99.41 38.98Q101.09 37.01 102.38 34.25L102.38 34.25L103.09 34.74Q101.95 37.65 100.12 39.90Q98.28 42.14 96.23 43.38Q94.18 44.62 92.23 44.62L92.23 44.62Q90.07 44.62 89.26 43.46Q88.45 42.30 88.45 40.62L88.45 40.62Q88.45 39.98 88.56 39.30Q88.67 38.63 88.83 37.92L88.83 37.92Q87.32 40.57 85.56 42.59Q83.81 44.62 81.76 44.62ZM107.19 45.38L107.19 45.38Q103.90 45.38 102.25 43.57Q100.60 41.76 100.60 39.11L100.60 39.11Q100.60 36.68 101.82 33.98Q103.03 31.28 105.06 28.91Q107.08 26.53 109.51 25.05Q111.94 23.56 114.32 23.56L114.32 23.56Q115.56 23.56 116.61 24.21Q117.67 24.86 117.67 26.85L117.67 26.85Q117.67 28.91 116.45 30.71Q115.24 32.52 113.26 33.93Q111.29 35.33 108.94 36.22Q106.60 37.11 104.27 37.33L104.27 37.33Q104.17 37.87 104.11 38.36Q104.06 38.84 104.06 39.27L104.06 39.27Q104.06 40.95 104.95 42.38Q105.84 43.81 108.32 43.81L108.32 43.81Q110.65 43.81 112.91 42.49Q115.18 41.16 117.13 39.00Q119.07 36.84 120.42 34.25L120.42 34.25L121.07 34.74Q119.61 37.98 117.37 40.35Q115.13 42.73 112.51 44.05Q109.89 45.38 107.19 45.38ZM104.54 36.30L104.54 36.30Q106.00 35.82 107.84 34.87Q109.67 33.93 111.37 32.63Q113.08 31.34 114.18 29.77Q115.29 28.20 115.29 26.48L115.29 26.48Q115.29 25.88 115.07 25.56Q114.86 25.23 114.16 25.23L114.16 25.23Q112.86 25.23 111.40 26.23Q109.94 27.23 108.59 28.85Q107.24 30.47 106.16 32.42Q105.08 34.36 104.54 36.30Z"/></svg><text fill="#0080ff" font-family="Verdana" font-size="12px" x="118.09584350585936" y="188.53955078125"><tspan dy="0" x="118.09584350585936">Makes your transaction easier</tspan></text></svg>